<?xml version="1.0" encoding="utf-8"?>
<!-- Generator: Adobe Illustrator 23.0.6, SVG Export Plug-In . SVG Version: 6.00 Build 0)  -->
<svg version="1.1" id="Layer_1" xmlns="http://www.w3.org/2000/svg" xmlns:xlink="http://www.w3.org/1999/xlink" x="0px" y="0px"
	 viewBox="0 0 2000 2000" style="enable-background:new 0 0 2000 2000;" xml:space="preserve">
<style type="text/css">
	.st0{fill:#F57921;}
	.st1{fill:#FFFFFF;}
</style>
<path class="st0" d="M2000,1703.7c0,163-133.3,296.3-296.3,296.3H296.3C133.3,2000,0,1866.7,0,1703.7V296.3C0,133.3,133.3,0,296.3,0
	h1407.4c163,0,296.3,133.3,296.3,296.3V1703.7z"/>
<g>
	<path class="st1" d="M1036.6,873.7h414.6v236.9c0,236.9-177.7,414.6-414.6,414.6c-177.7,0-311-103.7-370.2-207.3
		c-44.4-74-44.4-103.7-44.4-385s14.8-311,44.4-385c59.2-103.7,177.7-207.3,370.2-207.3c222.1,0,370.2,162.9,414.6,340.6h-192.5
		c-29.6-88.8-118.5-162.9-222.1-162.9c-88.8,0-148.1,44.4-177.7,88.8c-44.4,59.2-59.2,88.8-59.2,325.8s14.8,266.6,59.2,325.8
		c29.6,44.4,103.7,88.8,177.7,88.8c133.3,0,236.9-103.7,236.9-251.7v-59.2h-236.9V873.7z"/>
</g>
</svg>
